<?xml version="1.0" encoding="UTF-8" standalone="no"?>
<!-- Created with Inkscape (http://www.inkscape.org/) -->

<svg
   version="1.1"
   id="svg9"
   width="4354"
   height="1202"
   viewBox="0 0 4354 1202"
   sodipodi:docname="Level_BW.svg"
   inkscape:version="1.1.2 (b8e25be833, 2022-02-05)"
   xmlns:inkscape="http://www.inkscape.org/namespaces/inkscape"
   xmlns:sodipodi="http://sodipodi.sourceforge.net/DTD/sodipodi-0.dtd"
   xmlns:xlink="http://www.w3.org/1999/xlink"
   xmlns="http://www.w3.org/2000/svg"
   xmlns:svg="http://www.w3.org/2000/svg">
  <defs
     id="defs13" />
  <sodipodi:namedview
     id="namedview11"
     pagecolor="#ffffff"
     bordercolor="#666666"
     borderopacity="1.0"
     inkscape:pageshadow="2"
     inkscape:pageopacity="0.0"
     inkscape:pagecheckerboard="0"
     showgrid="false"
     inkscape:zoom="17.742306"
     inkscape:cx="2585.5996"
     inkscape:cy="554.55024"
     inkscape:window-width="1920"
     inkscape:window-height="1017"
     inkscape:window-x="-8"
     inkscape:window-y="-8"
     inkscape:window-maximized="1"
     inkscape:current-layer="g15" />
  <g
     inkscape:groupmode="layer"
     inkscape:label="Image"
     id="g15">
    <image
       width="4354"
       height="1202"
       preserveAspectRatio="none"
       xlink:href="Level_BW.png"
       id="image17" />
    <path
       style="fill:#000000"
       d="M 3457,65 V 0 h 32 v 65 z"
       id="path3888" />
    <path
       style="fill:#000000"
       d="m 3009,129 v -16 h 16 v 16 z"
       id="path3886" />
    <path
       style="fill:#000000"
       d="m 2945,129 v -16 h 16 v 16 z"
       id="path3884" />
    <path
       style="fill:#000000"
       d="M 3457,162 V 97 h 32 v 32 h 192 V 81 h 64 V 65 h -64 V 50 h 64 V 33 h -64 V 1 h 72 v 128 h 56 v 33 z"
       id="path3882" />
    <path
       style="fill:#000000"
       d="m 2929,177 v -16 h 16 v 16 z"
       id="path3880" />
    <path
       style="fill:#000000"
       d="m 2961,337 v -16 h 16 v 16 z"
       id="path3878" />
    <path
       style="fill:#000000"
       d="m 2897,337 v -16 h 16 v 16 z"
       id="path3876" />
    <path
       style="fill:#000000"
       d="m 3057,369 v -47 h -15 v 15 h -17 v -16 h 48 v 48 z"
       id="path3874" />
    <path
       style="fill:#000000"
       d="m 3057,400 v -15 h 16 v 15 z"
       id="path3872" />
    <path
       style="fill:#000000"
       d="m 2913,449 v -16 h 128 v 16 z"
       id="path3870" />
    <path
       style="fill:#000000"
       d="m 3057,464 v -47 h 16 v 47 z"
       id="path3868" />
    <path
       style="fill:#000000"
       d="m 2817,481 v -16 h 224 v 16 z"
       id="path3866" />
    <path
       style="fill:#000000"
       d="m 2849,577 v -16 h 32 v 16 z"
       id="path3864" />
    <path
       style="fill:#000000"
       d="m 2913,609 v -16 h 16 v 16 z"
       id="path3862" />
    <path
       style="fill:#000000"
       d="m 2657,640 v -31 h 159 v 31 z"
       id="path3860" />
    <path
       style="fill:#000000"
       d="m 2897,657 v -16 h 16 v 16 z"
       id="path3858" />
    <path
       style="fill:#000000"
       d="m 2529,721 v -16 h 64 v -16 h -64 v -16 h 64 l -1.2718,-126.92072 -17.9926,-0.78951 L 2753,545 v 32 h -128 v 96 h 368 v -16 h 33 v -32 h -17 v -16 h -16 V 593.08413 L 2977.5,592.5 2976.9159,577 H 3026 v -17 h -97 v -15 h 128 v -64 h 16 v 72 h -18 v 168 h -29 v -32 h -215 v 32 h -25 v -17 h -80.5 -80.5 v 17 z"
       id="path3856"
       sodipodi:nodetypes="ccccccccccccccccccccccccccccccccccccccccccc" />
    <path
       style="fill:#000000"
       d="m 2465,721 v -16 h -64 v -32 h 64 v -16 h -32 v -16 h 32 v -32 h 32 v 112 z"
       id="path3854" />
    <path
       style="fill:#000000"
       d="m 2273,721 v -16 h 64 v -16 h -64 v -16 h 32 v -32 h 32 v -32 h 32 v 112 z"
       id="path3852" />
    <path
       style="fill:#000000"
       d="m 2209,721 v -16 h -64 v -32 h 64 v -16 h -32 v -16 h 32 v -32 h 32 v 112 z"
       id="path3850" />
    <path
       style="fill:#000000"
       d="M 4257,753 V 97 H 4049 V 1 h 58 v 80 h 182 v 672 z"
       id="path3848" />
    <path
       style="fill:#000000"
       d="M 4097,921 V 721 h 70 V 176 h -141 v 33 h -834 v 32 H 2865 V 194.08088 L 2848.5,193.40709 2897,193 v 32 h 240 v -16 h -64 v -16 h 304 v -48 h 32 v -16 h -32 v -16 h 32 V 97 h -32 V 66.080885 l -16.5,-0.673794 24.25,-0.203546 L 3409,65 V 33 h 32 v 160 h 560 v -32 h 191 v 592 h -80 v 160 h 225 V 753 h 16 v 168 z"
       id="path3846" />
    <path
       style="fill:#000000"
       d="m 1777,929 v -24 -24 h 16 v 24 24 z"
       id="path3844" />
    <path
       style="fill:#000000"
       d="m 1537,961 v -16 h 160 v -16 h -32 v -16 h 80 v -32 h -64 v -16 h 16 v -16 h -16 V 817.5 786 h -16 v 15 h -33 v 111 h -31 V 801 h -32 v -16 h 128 v 32 h 32 v 32 h 48 v -64 h -16 v -16 h 16 v -16 h -48 v -16 h -16 V 721 H 1585 V 674.08088 L 1568.5,673.40709 2049,673 v -32 h 32 v -32 h 32 v 112 h -30 v -32 h -164 v 32 h -62 v -32 h -135 v 32 h 71 v 64 0 80 h -16 v -15 h -16 v 80 h -32 v 15 h 32 v 16 z"
       id="path3842" />
    <path
       style="fill:#000000"
       d="m 1569,1057 v -16 h 32 v 16 z"
       id="path3840" />
    <path
       style="fill:#000000"
       d="m 1633,1089 v -16 h 16 v 16 z"
       id="path3838" />
    <path
       style="fill:#000000"
       d="m 1425,1105 v -16 h 64 v -16 h 32 v 32 z"
       id="path3836" />
    <path
       style="fill:#000000"
       d="m 1617,1137 v -17 h 16 v 17 z"
       id="path3834" />
    <path
       style="fill:#000000"
       d="m 385,1201 v -32 H 0 v -16 h 385 v -16 H 257 v -16 h 80 v -32 h 48 v -32 h 64 v 32 h 32 v 16 h -32 v 16 h 64 v 32 h 256 v -32 h 32 v -32 h 32 v 112 h -32 v -32 H 641 v 32 h -61 v -32 H 449 v 32 z"
       id="path3832" />
    <path
       style="fill:#000000"
       d="M 1249,1200.9808 V 1185 h 96 v -16 h -96 v -16 h 96 v -16 h -32 v -16 h 32 v -32 h 32 v 64 h 336 v -16 h 33 v -33 h -17 v -16 h -16 v -15 h -16 v -16 h 49 v -17 h -97 v -15 h 128 v -80 h 16 v 87 h -18 v 136 h -254 v 33 l -272,-0.019 z"
       id="path3830" />
    <path
       style="fill:#000000"
       d="m 1185,1202 v -17 h -64 v -32 h 64 v -16 h -32 v -16 h 32 v -32 h 32 v 113 z"
       id="path3828" />
    <path
       style="fill:#000000"
       d="M 993,1200.9723 V 1185 h 64 v -16 h -64 v -16 h 32 v -32 h 32 v -32 h 32 v 113 z"
       id="path3826" />
    <path
       style="fill:#000000"
       d="m 929,1202 v -17 h -64 v -32 h 64 v -16 h -32 v -16 h 32 v -32 h 32 v 113 z"
       id="path99" />
  </g>
</svg>
